# xmcd
#
# Track frame offsets:
# 150
# 84048
# 108632
# 134386
# 142970
# 219844
#
# Disc length: 3935 seconds
#
#
# Revision: 7
# Processed by: cddbd v1.5.1PL2 Copyright (c) Steve Scherf et al.
# Submitted via: FreeRIP 2.00 
#
DISCID=480f5d06
DTITLE=Porcupine Tree - The Sky Moves Sideways
DYEAR=1995
DGENRE=Rock
TTITLE0=The Sky Moves Sideways (phase one)
TTITLE1=Dislocated Day
TTITLE2=The Moon Touches Your Shoulder
TTITLE3=Prepare Yourself
TTITLE4=Moonloop
TTITLE5=The Sky Moves Sideways (phase two)
EXTD=YEAR: 1995 ID3G: 17
EXTT0=
EXTT1=
EXTT2=
EXTT3=
EXTT4=
EXTT5=
PLAYORDER=
